<svg width="30" height="30" viewBox="0 0 30 30" fill="none" xmlns="http://www.w3.org/2000/svg">
<g clip-path="url(#clip0_15_48)">
<path d="M13.675 25.8962C14.0266 26.2474 14.5031 26.4446 15 26.4446C15.4969 26.4446 15.9735 26.2474 16.325 25.8962L23.3988 18.8262C23.7505 18.4745 23.9481 17.9974 23.9481 17.5C23.9481 17.0025 23.7505 16.5255 23.3988 16.1737C23.047 15.822 22.57 15.6244 22.0725 15.6244C21.5751 15.6244 21.098 15.822 20.7463 16.1737L16.875 20.0437L16.875 5.62498C16.875 5.1277 16.6775 4.65079 16.3258 4.29916C15.9742 3.94753 15.4973 3.74998 15 3.74998C14.5027 3.74998 14.0258 3.94753 13.6742 4.29916C13.3226 4.65079 13.125 5.1277 13.125 5.62498L13.125 20.0437L9.25502 16.1737C9.08085 15.9996 8.87409 15.8614 8.64653 15.7672C8.41897 15.6729 8.17508 15.6244 7.92877 15.6244C7.68246 15.6244 7.43857 15.6729 7.21101 15.7672C6.98345 15.8614 6.77668 15.9996 6.60252 16.1737C6.42835 16.3479 6.2902 16.5547 6.19594 16.7822C6.10168 17.0098 6.05317 17.2537 6.05317 17.5C6.05317 17.7463 6.10168 17.9902 6.19594 18.2177C6.2902 18.4453 6.42835 18.6521 6.60252 18.8262L13.675 25.8962Z" fill="#7CFF14"/>
</g>
<defs>
<clipPath id="clip0_15_48">
<rect width="30" height="30" fill="white" transform="matrix(-1 0 0 -1 30 30)"/>
</clipPath>
</defs>
</svg>
