<svg width="20" height="24" viewBox="0 0 20 24" fill="CurrentColor" xmlns="http://www.w3.org/2000/svg">
<path d="M2.5 4.65938V16.6875C2.49982 17.8776 2.95231 19.0232 3.7657 19.892C4.57909 20.7607 5.69247 21.2876 6.88 21.3656L7.1875 21.375H15.4637C15.2699 21.9233 14.9109 22.398 14.4361 22.7338C13.9613 23.0696 13.394 23.2499 12.8125 23.25H6.25C4.75816 23.25 3.32742 22.6574 2.27252 21.6025C1.21763 20.5476 0.625 19.1168 0.625 17.625V7.3125C0.624695 6.73064 0.804865 6.16301 1.14068 5.68783C1.47649 5.21265 1.95142 4.85333 2.5 4.65938ZM16.5625 0.75C17.3084 0.75 18.0238 1.04632 18.5512 1.57376C19.0787 2.10121 19.375 2.81658 19.375 3.5625V16.6875C19.375 17.4334 19.0787 18.1488 18.5512 18.6762C18.0238 19.2037 17.3084 19.5 16.5625 19.5H7.1875C6.44158 19.5 5.72621 19.2037 5.19876 18.6762C4.67132 18.1488 4.375 17.4334 4.375 16.6875V3.5625C4.375 2.81658 4.67132 2.10121 5.19876 1.57376C5.72621 1.04632 6.44158 0.75 7.1875 0.75H16.5625Z"/>
</svg>
