<svg width="118" height="44" viewBox="0 0 118 44" fill="none" xmlns="http://www.w3.org/2000/svg">
<path d="M21.6606 44L20.346 37.0511H10.4547L9.14004 44H0.626038L9.07744 0.177948H22.0362L30.0494 44H21.6606ZM15.2751 8.31633L12.8336 22.9028L11.4563 30.3526H19.2817L17.8418 22.9028L15.4003 8.31633H15.2751Z" fill="#FFFDFE"/>
<path d="M72.0707 7.50249L57.2338 36.7381H72.1333V44H48.1563V36.8633L62.9306 7.6903H48.1563V0.177948H72.0707V7.50249Z" fill="#FFFDFE"/>
<path d="M108.045 44H98.9048V29.4135L89.6396 0.177948H98.1536L102.035 13.5124L103.35 21.2125H103.6L104.915 13.5124L108.796 0.177948H117.31L108.045 29.4135V44Z" fill="#FFFDFE"/>
</svg>
